<?xml version="1.0"?>
<svg xmlns="http://www.w3.org/2000/svg" id="Layer_1" data-name="Layer 1" viewBox="0 0 512 512" width="512" height="512"><path d="M256,10A246,246,0,0,0,82.052,429.948a246,246,0,1,0,347.9-347.9A244.39,244.39,0,0,0,256,10ZM421.463,421.463A234,234,0,0,1,90.537,90.537,234,234,0,0,1,421.463,421.463Z"/><path d="M155.491,179a6,6,0,0,0,6-6V80.392a6,6,0,0,0-12,0V173A6,6,0,0,0,155.491,179Z"/><path d="M190.345,179a6,6,0,0,0,6-6V80.392a6,6,0,1,0-12,0V173A6,6,0,0,0,190.345,179Z"/><path d="M392,165.147c0-19.335-5.386-41.336-14.408-58.854-10.493-20.376-24.17-31.6-38.51-31.6-13.062,0-25.574,9.315-35.631,26.376a162.7,162.7,0,0,0-77.615-4.249V80.392a6,6,0,0,0-12,0v87.133a40.918,40.918,0,0,1-81.836,0V80.392a6,6,0,0,0-12,0v87.133c0,.15.01.3.011.445A161.972,161.972,0,0,0,154.436,382.2v37.872a17.558,17.558,0,0,0,17.538,17.539h.923a17.559,17.559,0,0,0,17.539-17.539v-15.9A162.745,162.745,0,0,0,256,418a160.242,160.242,0,0,0,65.082-13.6v15.668a17.558,17.558,0,0,0,17.538,17.539h.924a17.558,17.558,0,0,0,17.538-17.539V382.583a161.973,161.973,0,0,0,34.872-214.668C391.979,167,392,166.083,392,165.147ZM339.082,86.7c9.481,0,19.629,9.146,27.842,25.092A122.254,122.254,0,0,1,380,165.147c0,28.931-13.767,43.6-40.918,43.6s-40.918-14.669-40.918-43.6a122.254,122.254,0,0,1,13.076-53.36C319.453,95.841,329.6,86.7,339.082,86.7ZM106,256a149.41,149.41,0,0,1,17.328-70.015,53.054,53.054,0,0,0,43.108,34.047v61.576h-6a6,6,0,0,0-6,6v78.786A148.963,148.963,0,0,1,106,256Zm66.9,169.608h-.923a5.544,5.544,0,0,1-5.538-5.539V293.608h12V394.735c0,.016,0,.033,0,.049v25.285A5.545,5.545,0,0,1,172.9,425.608ZM256,406a148.29,148.29,0,0,1-65.564-15.059V287.608a6,6,0,0,0-6-6h-6V220.155a52.992,52.992,0,0,0,47.4-52.63V109.038a151.055,151.055,0,0,1,72.041,2.889c-7.383,16.458-11.713,35.9-11.713,53.22,0,33.693,16.6,53.157,46.918,55.382v61.079h-6a6,6,0,0,0-6,6V391.176A148.329,148.329,0,0,1,256,406Zm89.082,14.069a5.544,5.544,0,0,1-5.538,5.539h-.924a5.544,5.544,0,0,1-5.538-5.539V293.608h12ZM406,256a148.892,148.892,0,0,1-48.918,110.835V287.608a6,6,0,0,0-6-6h-6V220.529c23.043-1.691,38.153-13.346,44.081-33.632A149.428,149.428,0,0,1,406,256Z"/></svg>
